<svg width="1280" height="800" viewBox="0 0 1280 800" fill="none" xmlns="http://www.w3.org/2000/svg">
  <defs>
    <linearGradient id="bg" x1="0" y1="0" x2="1280" y2="800" gradientUnits="userSpaceOnUse">
      <stop stop-color="#08121F"/>
      <stop offset="1" stop-color="#1A1130"/>
    </linearGradient>
    <linearGradient id="panel" x1="0" y1="0" x2="1" y2="1">
      <stop stop-color="#1E2E49"/>
      <stop offset="1" stop-color="#27395A"/>
    </linearGradient>
  </defs>
  <rect width="1280" height="800" fill="url(#bg)"/>
  <rect x="86" y="88" width="1108" height="624" rx="24" fill="url(#panel)" stroke="#33F6FF" stroke-opacity="0.25"/>

  <text x="136" y="182" fill="#D5F9FF" font-size="72" font-family="Arial" font-weight="700">NOVABOX X</text>
  <text x="136" y="236" fill="#9ED3E0" font-size="30" font-family="Arial">Nueva generacion. Cero tiempos de carga.</text>

  <rect x="136" y="286" width="220" height="74" rx="37" fill="#FF4BD8"/>
  <text x="180" y="333" fill="#190722" font-size="34" font-family="Arial" font-weight="700">RESERVA</text>

  <rect x="784" y="206" width="286" height="360" rx="24" fill="#0E1726" stroke="#7EF9FF" stroke-opacity="0.35"/>
  <rect x="818" y="236" width="218" height="232" rx="18" fill="#16243B"/>
  <circle cx="927" cy="486" r="14" fill="#2AF3FF"/>

  <rect x="622" y="350" width="210" height="138" rx="24" fill="#132035"/>
  <circle cx="682" cy="419" r="20" fill="#2AF3FF"/>
  <circle cx="770" cy="389" r="10" fill="#FF4BD8"/>
  <circle cx="808" cy="419" r="10" fill="#FF4BD8"/>
  <circle cx="770" cy="449" r="10" fill="#FF4BD8"/>
  <circle cx="808" cy="449" r="10" fill="#2AF3FF"/>

  <rect x="136" y="596" width="302" height="90" rx="16" fill="#0E1726" stroke="#2AF3FF" stroke-opacity="0.3"/>
  <text x="166" y="650" fill="#2AF3FF" font-size="52" font-family="Arial" font-weight="700">$499</text>
  <text x="322" y="650" fill="#9ED3E0" font-size="26" font-family="Arial">desde</text>
</svg>
