<svg width="1280" height="800" viewBox="0 0 1280 800" fill="none" xmlns="http://www.w3.org/2000/svg">
  <defs>
    <linearGradient id="sky" x1="640" y1="0" x2="640" y2="800" gradientUnits="userSpaceOnUse">
      <stop stop-color="#101821"/>
      <stop offset="1" stop-color="#27131A"/>
    </linearGradient>
    <radialGradient id="moon" cx="0" cy="0" r="1" gradientUnits="userSpaceOnUse" gradientTransform="translate(950 140) rotate(90) scale(180)">
      <stop stop-color="#FFF3B0" stop-opacity="0.95"/>
      <stop offset="1" stop-color="#FFF3B0" stop-opacity="0"/>
    </radialGradient>
  </defs>
  <rect width="1280" height="800" fill="url(#sky)"/>
  <rect width="1280" height="800" fill="url(#moon)"/>

  <path d="M0 560L230 515L435 560L620 530L802 575L995 525L1280 572V800H0V560Z" fill="#111B24"/>

  <g>
    <rect x="260" y="290" width="370" height="260" rx="9" fill="#2A2D35"/>
    <rect x="295" y="330" width="120" height="180" rx="6" fill="#3B3F49"/>
    <rect x="430" y="330" width="160" height="180" rx="6" fill="#1F222A"/>
    <path d="M260 340L445 228L630 340" stroke="#4B4E57" stroke-width="20" stroke-linecap="round" stroke-linejoin="round"/>
    <rect x="480" y="245" width="55" height="55" rx="6" fill="#6D1313"/>
    <rect x="498" y="262" width="20" height="20" rx="3" fill="#F7E7E7"/>
  </g>

  <g>
    <rect x="710" y="320" width="290" height="220" rx="9" fill="#2B2F39"/>
    <rect x="742" y="355" width="95" height="150" rx="6" fill="#3A3F4A"/>
    <rect x="855" y="355" width="113" height="150" rx="6" fill="#21252D"/>
    <path d="M710 360L855 270L1000 360" stroke="#4E515B" stroke-width="18" stroke-linecap="round" stroke-linejoin="round"/>
  </g>

  <g opacity="0.85">
    <circle cx="210" cy="580" r="32" fill="#7E1D1D"/>
    <circle cx="1090" cy="595" r="28" fill="#7E1D1D"/>
    <circle cx="1030" cy="575" r="21" fill="#7E1D1D"/>
  </g>

  <g>
    <rect x="522" y="470" width="26" height="85" rx="8" fill="#161A21"/>
    <circle cx="535" cy="455" r="18" fill="#E8E9ED"/>
    <rect x="510" y="510" width="52" height="16" rx="8" fill="#7E1D1D"/>
  </g>
</svg>
